<svg width="222.000000" height="228.000000" viewBox="0 0 222 228" fill="none" xmlns="http://www.w3.org/2000/svg" xmlns:xlink="http://www.w3.org/1999/xlink">
	<desc>
			Created with Pixso.
	</desc>
	<defs>
		<clipPath id="clip348_9102">
			<rect id="account 3" rx="0.000000" width="47.000000" height="47.000000" transform="translate(87.500000 90.500000)" fill="white" fill-opacity="0"/>
		</clipPath>
	</defs>
	<rect id="Rectangle 675" rx="2.000000" width="222.000000" height="228.000000" fill="#171717" fill-opacity="1.000000"/>
	<rect id="account 3" rx="0.000000" width="47.000000" height="47.000000" transform="translate(87.500000 90.500000)" fill="#FFFFFF" fill-opacity="0"/>
	<g clip-path="url(#clip348_9102)">
		<g opacity="0.000000">
			<path id="Vector" d="M87 90L135 90L135 138L87 138L87 90Z" fill="#FFFFFF" fill-opacity="1.000000" fill-rule="evenodd"/>
		</g>
		<path id="Vector" d="M123 96L99 96C97.4 96 95.88 96.63 94.75 97.75C93.63 98.88 93 100.4 93 102L93 126C93 127.59 93.63 129.11 94.75 130.24C95.88 131.36 97.4 132 99 132L123 132C124.59 132 126.11 131.36 127.24 130.24C128.36 129.11 129 127.59 129 126L129 102C129 100.4 128.36 98.88 127.24 97.75C126.11 96.63 124.59 96 123 96ZM99 100L123 100C123.53 100 124.03 100.21 124.41 100.58C124.78 100.96 125 101.47 125 102L125 118.72L118.6 113.26C117.6 112.44 116.36 111.99 115.08 111.99C113.79 111.99 112.55 112.44 111.56 113.26L97 125.4L97 102C97 101.47 97.21 100.96 97.58 100.58C97.96 100.21 98.46 100 99 100ZM123 128L100.12 128L114.12 116.32C114.38 116.12 114.71 116.01 115.05 116.01C115.38 116.01 115.71 116.12 115.98 116.32L125 124L125 126C125 126.53 124.78 127.03 124.41 127.41C124.03 127.78 123.53 128 123 128Z" fill="#FFFFFF" fill-opacity="1.000000" fill-rule="nonzero"/>
		<path id="Vector" d="M106 107C106 108.65 104.65 110 103 110C101.34 110 100 108.65 100 107C100 105.34 101.34 104 103 104C104.65 104 106 105.34 106 107Z" fill="#FFFFFF" fill-opacity="1.000000" fill-rule="evenodd"/>
	</g>
</svg>
